<svg xmlns="http://www.w3.org/2000/svg" width="16" height="16" viewBox="0 0 16 16">
  <g fill="none" fill-rule="evenodd" stroke-linecap="round" stroke-linejoin="round">
    <path stroke="#376789" d="M4,12.5 C3.52277721,12.5 2.80694303,12.5 1.85249746,12.5 C1.65829131,12.5 1.5,12.3301544 1.5,12.1217724 L1.5,11.1084079 C1.5,10.4775529 1.8431862,9.80975626 2.37658802,9.53857422 L3.6641124,9.53857422 L4.24415945,8.39373297 C3.64025814,7.86849617 3.26647782,7.08920462 3.2358837,6.24711301 L3.16405403,4.25178409 C3.16405403,2.72745556 4.32530037,1.5 5.75258253,1.5 L6.24474879,1.5 C7.67336113,1.5 8.83460747,2.72888283 8.83460747,4.23751135 L8.76277779,6.24711301 C8.73218368,7.09063189 8.35840335,7.86992345 7.75317187,8.39516024 L8,9.53857422 L10,9.53857422"/>
    <path stroke="#049474" stroke-width="2" d="M14 12L12 9M14 12L12 15M13 12L7 12M14 12L12 9M14 12L12 15M13 12L7 12"/>
  </g>
</svg>
